<?xml version="1.0" standalone="no"?>
<!DOCTYPE svg PUBLIC "-//W3C//DTD SVG 20010904//EN"
 "http://www.w3.org/TR/2001/REC-SVG-20010904/DTD/svg10.dtd">
<svg version="1.0" xmlns="http://www.w3.org/2000/svg"
 width="200.000000pt" height="200.000000pt" viewBox="0 0 200.000000 200.000000"
 preserveAspectRatio="xMidYMid meet">

<g transform="translate(0.000000,200.000000) scale(0.100000,-0.100000)"
fill="#000000" stroke="none">
<path d="M951 1794 c-281 -75 -422 -391 -289 -647 18 -34 34 -65 36 -69 2 -3
-13 -14 -33 -24 -46 -21 -47 -19 -69 95 -26 133 -96 455 -101 459 -2 2 -32
-16 -67 -40 -35 -24 -107 -75 -160 -112 -74 -51 -98 -73 -98 -89 1 -44 126
-601 135 -603 6 -1 36 -10 68 -19 l57 -16 -6 -38 c-16 -98 39 -262 117 -346
156 -169 425 -193 610 -55 139 104 209 309 164 476 -15 56 -16 67 -4 75 28 17
38 8 48 -43 6 -29 24 -114 39 -188 l28 -134 155 -43 c84 -23 165 -45 178 -48
23 -6 23 -4 18 32 -3 21 -19 101 -35 178 -17 77 -42 199 -58 270 -15 72 -28
139 -28 150 -1 14 20 33 79 68 44 26 83 51 87 55 7 7 -27 190 -36 199 -2 2
-70 -31 -152 -73 -110 -58 -146 -73 -140 -58 21 52 29 144 19 212 -41 267
-307 445 -562 376z"/>
</g>
</svg>
